# xmcd
#
# Track frame offsets:
#	150
#	17812
#	38660
#	58692
#	77190
#	95017
#	115687
#	132545
#
# Disc length: 2013 seconds
#
# Revision: 1
# Processed by: cddbd v1.5.2PL0 Copyright (c) Steve Scherf et al.
# Submitted via: EasyCDDAExtractor 15.3.0.1
#
DISCID=6607db08
DTITLE=Deddie Romero - Mas De Mi
DYEAR=1998
DGENRE=Latin
TTITLE0=Licencia
TTITLE1=Te Duele
TTITLE2=A Fuego Lento
TTITLE3=Vicio
TTITLE4=Hey Tu
TTITLE5=Batida De Coco
TTITLE6=Esta Noche Se Entera Tu Esposa
TTITLE7=Voy A Recobrar Tu Amor
EXTD=
EXTT0=
EXTT1=
EXTT2=
EXTT3=
EXTT4=
EXTT5=
EXTT6=
EXTT7=
PLAYORDER=
